HIERARCHY
ROOT SpineBase
{
  OFFSET 0.000000 0.000000 0.000000
  CHANNELS 6 Xposition Yposition Zposition Zrotation Xrotation Yrotation
  JOINT SpineMid
  {
    OFFSET 0.000000 29.901215 0.000000
    CHANNELS 3 Zrotation Xrotation Yrotation
    JOINT SpineShoulder
    {
      OFFSET 0.016501 22.244849 -0.681652
      CHANNELS 3 Zrotation Xrotation Yrotation
      JOINT Neck
      {
        OFFSET 0.023375 7.369409 -0.539555
        CHANNELS 3 Zrotation Xrotation Yrotation
        JOINT Head
        {
          OFFSET -4.586952 13.486642 -0.484151
          CHANNELS 3 Zrotation Xrotation Yrotation
          End Site
          {
            OFFSET 0 0 0
          }
        }
      }
      JOINT ShoulderLeft
      {
        OFFSET -16.013589 -5.100344 5.779689
        CHANNELS 3 Zrotation Xrotation Yrotation
        JOINT ElbowLeft
        {
          OFFSET -1.529685 -26.613452 3.550584
          CHANNELS 3 Zrotation Xrotation Yrotation
          JOINT WristLeft
          {
            OFFSET 0.789009 -21.526142 -6.986404
            CHANNELS 3 Zrotation Xrotation Yrotation
            JOINT HandLeft
            {
              OFFSET 0.894405 -5.113918 -0.991715
              CHANNELS 3 Zrotation Xrotation Yrotation
              JOINT HandTipLeft
              {
                OFFSET 2.279009 -3.756448 -1.872466
                CHANNELS 3 Zrotation Xrotation Yrotation
                End Site
                {
                  OFFSET 0 0 0
                }
              }
              JOINT ThumbLeft
              {
                OFFSET -2.453710 0.136874 -1.225250
                CHANNELS 3 Zrotation Xrotation Yrotation
                End Site
                {
                  OFFSET 0 0 0
                }
              }
            }
          }
        }
      }
      JOINT ShoulderRight
      {
        OFFSET 14.000519 -2.819229 -7.924933
        CHANNELS 3 Zrotation Xrotation Yrotation
        JOINT ElbowRight
        {
          OFFSET 7.175143 -25.045306 0.431962
          CHANNELS 3 Zrotation Xrotation Yrotation
          JOINT WristRight
          {
            OFFSET -2.009533 -21.623033 -5.826255
            CHANNELS 3 Zrotation Xrotation Yrotation
            JOINT HandRight
            {
              OFFSET -1.592395 -2.543425 0.175228
              CHANNELS 3 Zrotation Xrotation Yrotation
              JOINT HandTipRight
              {
                OFFSET -0.562212 -6.331255 -0.445599
                CHANNELS 3 Zrotation Xrotation Yrotation
                End Site
                {
                  OFFSET 0 0 0
                }
              }
              JOINT ThumbRight
              {
                OFFSET -3.595633 1.737901 -1.085381
                CHANNELS 3 Zrotation Xrotation Yrotation
                End Site
                {
                  OFFSET 0 0 0
                }
              }
            }
          }
        }
      }
    }
  }
  JOINT HipLeft
  {
    OFFSET -6.394705 0.305516 -0.849684
    CHANNELS 3 Zrotation Xrotation Yrotation
    JOINT KneeLeft
    {
      OFFSET 4.426830 -29.593263 6.517517
      CHANNELS 3 Zrotation Xrotation Yrotation
      JOINT AnkleLeft
      {
        OFFSET 5.560187 -31.352592 4.862474
        CHANNELS 3 Zrotation Xrotation Yrotation
        JOINT FootLeft
        {
          OFFSET 4.921290 -5.730041 -7.014323
          CHANNELS 3 Zrotation Xrotation Yrotation
          End Site
          {
            OFFSET 0 0 0
          }
        }
      }
    }
  }
  JOINT HipRight
  {
    OFFSET 7.127782 1.350161 -5.935092
    CHANNELS 3 Zrotation Xrotation Yrotation
    JOINT KneeRight
    {
      OFFSET 6.504966 -26.942547 4.169036
      CHANNELS 3 Zrotation Xrotation Yrotation
      JOINT AnkleRight
      {
        OFFSET 2.714218 -32.415087 6.611291
        CHANNELS 3 Zrotation Xrotation Yrotation
        JOINT FootRight
        {
          OFFSET -3.831899 -3.903808 -12.284850
          CHANNELS 3 Zrotation Xrotation Yrotation
          End Site
          {
            OFFSET 0 0 0
          }
        }
      }
    }
  }
}
MOTION
Frames: 15
Frame Time: 0.033333
-40.688591 69.205842 336.773432 -13.291823 3.294599 1.479871 1.406362 -1.266845 -1.548932 -1.018499 -0.785697 -0.691384 -47.082001 1.750589 0.325550 0.000000 0.000000 0.000000 -141.115267 -23.592945 -99.168087 -25.113945 -2.921346 -145.734949 -27.810473 2.234277 -144.546538 -58.980385 -42.172304 1.731718 0.000000 0.000000 0.000000 0.000000 0.000000 0.000000 98.294182 -23.202908 14.810353 10.957259 -4.274044 -22.845029 28.804795 34.214218 40.334343 -31.839828 -2.249089 -35.316566 0.000000 0.000000 0.000000 0.000000 0.000000 0.000000 14.327598 -2.706155 -0.257379 5.484198 -3.690354 0.401114 -16.147167 20.773969 25.308980 0.000000 0.000000 0.000000 10.941917 4.529764 0.937467 9.190729 -10.576281 0.905848 -0.493999 3.763381 -22.997909 0.000000 0.000000 0.000000
-40.877333 68.762655 336.891127 -12.020982 2.778187 1.412316 1.677897 -1.334558 -1.513216 -1.239932 -0.465504 -0.596878 -51.158958 0.730859 -1.148158 0.000000 0.000000 0.000000 -140.969681 -25.678262 -99.115700 -14.544579 2.145818 -178.932625 -13.031688 -5.422075 -119.926064 -47.863345 -43.614053 8.966034 0.000000 0.000000 0.000000 0.000000 0.000000 0.000000 95.505943 -23.146627 14.102939 11.279709 -6.697989 -19.501031 27.846107 33.511882 36.295593 -32.158432 -1.388958 -33.581678 0.000000 0.000000 0.000000 0.000000 0.000000 0.000000 13.323148 -2.426051 -0.352866 5.242238 -3.316551 0.372311 -13.217867 20.502192 21.188716 0.000000 0.000000 0.000000 10.298682 5.057009 0.920009 8.559210 -10.473440 0.768346 -0.338831 3.545982 -23.468223 0.000000 0.000000 0.000000
-40.853013 68.333939 336.760961 -10.596671 2.666874 1.565519 1.607446 -1.368937 -1.659738 -1.330322 -0.074328 -0.505221 -55.135072 -0.006451 -2.485916 0.000000 0.000000 0.000000 -140.447488 -27.342701 -98.589377 -3.534913 1.256913 145.683425 0.851835 -2.465144 -90.510352 -36.043975 -43.762037 17.884547 0.000000 0.000000 0.000000 0.000000 0.000000 0.000000 92.393905 -23.475315 13.970267 11.935647 -7.707159 -17.833817 26.928152 32.988385 40.758839 -30.234939 2.130960 -39.975862 0.000000 0.000000 0.000000 0.000000 0.000000 0.000000 11.963543 -2.885345 -0.656613 5.249599 -2.631873 0.410206 -8.441633 17.999779 13.319924 0.000000 0.000000 0.000000 9.023874 4.726766 0.579801 8.367103 -9.988494 0.761922 -0.311390 3.504574 -23.292246 0.000000 0.000000 0.000000
-40.693916 67.987691 336.446498 -9.318346 2.893136 1.838796 1.341381 -1.338116 -1.902843 -1.335768 0.196651 -0.444027 -57.828842 -1.143851 -4.404448 0.000000 0.000000 0.000000 -139.440456 -28.247174 -97.084188 2.420052 -2.169448 119.466980 1.048188 7.323307 -76.732136 8.524489 -42.255635 70.473159 0.000000 0.000000 0.000000 0.000000 0.000000 0.000000 89.352222 -23.365928 13.829336 13.089633 -9.324865 -15.990708 26.723582 32.605531 41.564892 -29.658826 4.456554 -42.436715 0.000000 0.000000 0.000000 0.000000 0.000000 0.000000 10.642490 -3.727775 -1.033661 5.092620 -2.164382 0.395264 -3.416727 11.379791 2.661576 0.000000 0.000000 0.000000 7.388376 3.727257 0.019889 8.710851 -9.202292 0.907699 -0.390826 3.590635 -22.838751 0.000000 0.000000 0.000000
-40.501599 67.641596 336.173069 -8.411374 3.073318 1.949956 1.070057 -1.212444 -1.994859 -1.332390 0.061348 -0.431749 -60.292424 -1.252521 -4.944569 0.000000 0.000000 0.000000 -138.971159 -28.933127 -96.390254 5.414120 -3.571349 100.493752 -6.705841 13.866958 -73.424940 45.692452 2.262826 142.215569 0.000000 0.000000 0.000000 0.000000 0.000000 0.000000 86.288535 -22.871619 13.086121 14.390592 -10.333845 -15.156710 24.365818 31.424976 51.117636 -28.629484 4.534848 -45.606209 0.000000 0.000000 0.000000 0.000000 0.000000 0.000000 9.679927 -4.399710 -1.241069 4.738571 -1.897187 0.335353 -0.425142 5.941235 -4.730055 0.000000 0.000000 0.000000 6.197022 3.022097 -0.305885 8.852003 -8.728315 0.970262 -0.435977 3.772203 -22.152889 0.000000 0.000000 0.000000
-40.212024 67.487625 335.847475 -7.855983 3.144785 1.802812 0.515760 -1.156246 -1.870460 -1.300680 0.081262 -0.429150 -59.565823 -1.568180 -5.295530 0.000000 0.000000 0.000000 -136.487569 -29.930436 -93.864781 6.939314 -5.578267 84.626897 -12.867060 14.999958 -71.359735 39.911599 31.422688 173.213695 0.000000 0.000000 0.000000 0.000000 0.000000 0.000000 83.756885 -22.985037 12.586115 16.062784 -11.241511 -14.395880 22.356105 30.236902 55.994423 -27.717329 4.393013 -46.978841 0.000000 0.000000 0.000000 0.000000 0.000000 0.000000 8.937610 -4.988365 -1.247565 4.651907 -1.511174 0.339356 1.183011 1.209627 -10.355849 0.000000 0.000000 0.000000 5.122785 2.475303 -0.402418 9.202005 -8.313120 1.069123 -0.603679 4.021534 -21.012780 0.000000 0.000000 0.000000
-39.821099 67.563511 335.486516 -7.735792 3.260701 1.394632 -0.180820 -1.099437 -1.498675 -1.151586 0.044017 -0.445144 -56.692539 -2.195077 -5.689539 0.000000 0.000000 0.000000 -132.505364 -31.405395 -90.527169 7.170083 -7.212333 72.725052 -19.725875 14.264753 -67.470334 44.538683 17.843603 146.247192 0.000000 0.000000 0.000000 0.000000 0.000000 0.000000 81.986643 -23.349652 12.266577 16.542437 -11.416355 -13.607493 22.066001 28.732444 59.870108 -26.291499 5.121943 -49.668118 0.000000 0.000000 0.000000 0.000000 0.000000 0.000000 8.426398 -5.538989 -1.026477 5.069978 -1.095624 0.438341 0.806559 -2.520470 -13.421607 0.000000 0.000000 0.000000 4.257042 1.914763 -0.246990 9.776646 -7.912113 1.209031 -0.772870 4.267670 -19.892083 0.000000 0.000000 0.000000
-39.382267 67.894246 335.122080 -8.247935 3.438318 0.791161 -1.047605 -1.013592 -0.944435 -0.906667 0.002644 -0.488050 -52.343243 -3.119184 -6.170036 0.000000 0.000000 0.000000 -127.410401 -32.810268 -86.872951 6.822122 -9.146975 64.447886 -20.797824 11.712342 -56.258972 -4.591064 46.926924 -109.802094 0.000000 0.000000 0.000000 0.000000 0.000000 0.000000 80.877996 -23.905004 12.103402 17.416507 -11.547128 -13.079528 22.092258 27.798286 59.586582 -26.471026 0.299604 -46.157092 0.000000 0.000000 0.000000 0.000000 0.000000 0.000000 8.416992 -6.005144 -0.597466 5.652544 -0.854413 0.552984 -0.368396 -6.723271 -16.429931 0.000000 0.000000 0.000000 3.908649 1.407117 0.149998 10.485190 -7.646899 1.361571 -0.954284 4.537868 -18.810887 0.000000 0.000000 0.000000
-39.052971 68.183716 334.928836 -8.334470 3.443035 0.364213 -1.227793 -0.826942 -0.515176 -0.836176 -0.042817 -0.499202 -46.687857 -4.577547 -6.855926 0.000000 0.000000 0.000000 -121.828649 -34.054109 -81.561354 5.698182 -11.444013 58.741821 -16.304349 9.674020 -46.587260 -31.771969 -0.375118 -24.019162 0.000000 0.000000 0.000000 0.000000 0.000000 0.000000 80.575752 -24.057711 12.161093 16.912561 -11.490922 -12.519260 22.904576 27.881946 52.973359 -28.878328 -3.142289 -37.620976 0.000000 0.000000 0.000000 0.000000 0.000000 0.000000 8.081282 -6.065538 -0.324950 6.121998 -0.824978 0.637088 -2.161540 -4.181938 -11.834907 0.000000 0.000000 0.000000 3.427991 1.244214 0.430446 10.998886 -7.509202 1.468877 -1.098936 4.666845 -18.151513 0.000000 0.000000 0.000000
-38.671169 68.537489 334.769773 -8.261051 3.454554 -0.207971 -1.362298 -0.794163 0.052269 -0.848377 -0.144849 -0.512992 -41.039336 -5.564481 -6.849505 0.000000 0.000000 0.000000 -117.184020 -35.609272 -77.798069 4.916825 -10.992439 54.037908 -15.018272 8.014407 -39.390024 -29.864205 -1.958896 -24.068144 0.000000 0.000000 0.000000 0.000000 0.000000 0.000000 79.040910 -24.207843 11.746038 17.756597 -11.450383 -12.628891 23.564237 28.443828 43.792520 -30.058736 -6.522048 -29.582293 0.000000 0.000000 0.000000 0.000000 0.000000 0.000000 7.519919 -6.117166 0.059341 6.710392 -0.701859 0.752449 -6.342201 0.381667 -2.327651 0.000000 0.000000 0.000000 2.920089 1.196872 0.904394 11.081562 -7.445699 1.450142 -0.740543 4.682848 -18.138453 0.000000 0.000000 0.000000
-38.320459 68.812589 334.720414 -8.056747 3.483229 -0.723777 -1.128106 -0.622837 0.601207 -0.596729 -0.137312 -0.470146 -37.215149 -7.364507 -7.776378 0.000000 0.000000 0.000000 -113.727488 -36.583299 -74.457006 4.567755 -10.611441 49.629229 -14.838818 7.104798 -32.276047 -27.617279 -7.689965 -16.284104 0.000000 0.000000 0.000000 0.000000 0.000000 0.000000 77.551062 -23.994254 11.613870 18.047788 -11.520283 -12.617532 24.547489 29.119087 33.536421 -30.866542 -9.139405 -22.347055 0.000000 0.000000 0.000000 0.000000 0.000000 0.000000 6.834540 -6.128672 0.397931 7.098319 -0.730167 0.826975 -8.164398 5.069958 4.332633 0.000000 0.000000 0.000000 2.572789 1.333622 1.428500 10.725743 -7.619673 1.310959 0.034974 4.654239 -19.009611 0.000000 0.000000 0.000000
-38.026499 69.032639 334.789610 -7.540217 3.613739 -1.156948 -0.529636 -0.429870 1.098239 -0.272486 -0.106442 -0.388039 -34.877276 -9.075165 -8.655606 0.000000 0.000000 0.000000 -110.660872 -37.262635 -70.826672 3.819268 -10.873019 46.463683 -14.684304 6.308824 -29.030728 -24.850955 -12.706523 -6.498877 0.000000 0.000000 0.000000 0.000000 0.000000 0.000000 74.501513 -23.548682 11.267565 18.804881 -11.394620 -13.029545 26.911242 29.441691 24.437115 -31.583236 -12.270543 -15.583271 0.000000 0.000000 0.000000 0.000000 0.000000 0.000000 5.968440 -6.178168 0.702867 7.180010 -0.841563 0.849990 -7.311705 9.041562 6.794056 0.000000 0.000000 0.000000 2.113106 1.561692 1.950840 10.135382 -8.001458 1.098992 0.876931 4.600561 -20.022675 0.000000 0.000000 0.000000
-37.588346 69.266143 334.865440 -6.906350 3.718627 -1.127120 -0.202070 -0.176753 1.113341 0.036701 -0.029562 -0.310336 -31.982458 -9.944807 -8.581792 0.000000 0.000000 0.000000 -106.499552 -37.680359 -66.325177 3.388385 -11.749178 41.935534 -16.674006 5.507447 -23.134981 -19.331125 -14.031478 2.051681 0.000000 0.000000 0.000000 0.000000 0.000000 0.000000 71.589594 -22.773936 10.884303 19.248861 -11.315212 -13.242372 31.210848 29.356426 15.892015 -32.028669 -10.590359 -14.558474 0.000000 0.000000 0.000000 0.000000 0.000000 0.000000 4.933942 -6.288589 0.526299 7.389535 -0.699179 0.920349 -8.503378 9.822054 9.313141 0.000000 0.000000 0.000000 1.359140 1.691827 1.938078 9.579064 -8.295401 0.877891 1.643298 4.615267 -20.259748 0.000000 0.000000 0.000000
-37.103672 69.489796 334.959656 -6.086086 3.859088 -0.736495 0.019337 0.032185 0.755150 0.285438 0.045505 -0.235704 -30.244970 -10.541456 -8.486132 0.000000 0.000000 0.000000 -102.867406 -37.601359 -62.141046 3.982884 -11.300730 37.412584 -22.279059 2.778451 -19.509077 -11.755343 -12.570020 11.644499 0.000000 0.000000 0.000000 0.000000 0.000000 0.000000 68.886063 -21.812127 10.504148 19.465113 -11.114045 -13.548047 35.346197 28.828331 10.490074 -35.056455 -7.716138 -14.738720 0.000000 0.000000 0.000000 0.000000 0.000000 0.000000 3.696177 -6.293603 0.009374 7.337879 -0.877295 0.927510 -9.055217 9.438812 10.387124 0.000000 0.000000 0.000000 0.356292 1.680791 1.506608 9.090256 -8.480836 0.676011 2.303916 4.660660 -20.115596 0.000000 0.000000 0.000000
-36.623336 69.688514 335.071456 -5.157143 4.032868 -0.084721 0.202880 0.190676 0.126814 0.453272 0.100639 -0.168106 -28.962101 -9.890560 -7.577733 0.000000 0.000000 0.000000 -98.920799 -37.849794 -58.205201 3.673970 -12.421733 33.621937 -24.567871 1.613060 -14.860296 -4.389555 -10.671846 22.309399 0.000000 0.000000 0.000000 0.000000 0.000000 0.000000 66.150150 -20.847313 10.096477 20.083940 -10.907385 -14.075847 38.258549 28.276943 6.268894 -36.968325 -9.085078 -11.581431 0.000000 0.000000 0.000000 0.000000 0.000000 0.000000 2.510380 -6.349819 -0.727822 6.922260 -0.970442 0.882227 -8.336214 7.941734 9.184208 0.000000 0.000000 0.000000 -0.643819 1.575375 0.795646 8.435481 -8.571049 0.441671 2.745704 4.720461 -19.056671 0.000000 0.000000 0.000000
